<svg xmlns="http://www.w3.org/2000/svg" width="232" height="282" viewBox="0 0 232 282">
  <g id="Grupo_48" data-name="Grupo 48" transform="translate(-837)">
    <path id="União_1" data-name="União 1" d="M0,179.883V0H232V179.883C232,236.281,180.065,282,116,282S0,236.281,0,179.883Z" transform="translate(837)" fill="#fff"/>
    <g id="Grupo_1" data-name="Grupo 1" transform="translate(-384.078 -71.753)" style="isolation: isolate">
      <g id="Grupo_4" data-name="Grupo 4" transform="translate(1264.073 126.753)">
        <g id="Grupo_1-2" data-name="Grupo 1" transform="translate(10.626 120.95)">
          <path id="Caminho_1" data-name="Caminho 1" d="M1314.5,536.512h-9.158l-2.611,9.531h-4.765l9.572-33.441h4.766l9.573,33.441h-4.766Zm-1.326-4.807-3.274-11.935-3.232,11.935Z" transform="translate(-1297.97 -512.602)" fill="#002153"/>
          <path id="Caminho_2" data-name="Caminho 2" d="M1406.33,512.6v33.441h-4.766l-11.976-23.5v23.5h-4.765V512.6h4.765l11.976,23.5V512.6Z" transform="translate(-1357.598 -512.602)" fill="#002153"/>
          <path id="Caminho_3" data-name="Caminho 3" d="M1486.058,512.6v23.91a9.146,9.146,0,0,1-2.818,6.734,9.25,9.25,0,0,1-6.755,2.8h-3.564a9.248,9.248,0,0,1-6.755-2.8,9.144,9.144,0,0,1-2.818-6.734h4.765a4.766,4.766,0,0,0,1.43,3.357,4.561,4.561,0,0,0,3.377,1.409h3.564a4.631,4.631,0,0,0,3.4-1.409,4.583,4.583,0,0,0,1.409-3.357V512.6Z" transform="translate(-1411.509 -512.602)" fill="#002153"/>
          <path id="Caminho_4" data-name="Caminho 4" d="M1567.581,515.42a9.168,9.168,0,0,1,2.818,6.713v14.379a9.146,9.146,0,0,1-2.818,6.734,9.251,9.251,0,0,1-6.755,2.8h-3.564a9.248,9.248,0,0,1-6.755-2.8,9.144,9.144,0,0,1-2.818-6.734V522.133a9.621,9.621,0,0,1,9.572-9.531h3.564A9.217,9.217,0,0,1,1567.581,515.42Zm-1.948,6.713a4.584,4.584,0,0,0-1.409-3.357,4.633,4.633,0,0,0-3.4-1.409h-3.564a4.632,4.632,0,0,0-3.4,1.409,4.583,4.583,0,0,0-1.409,3.357v14.379a4.581,4.581,0,0,0,1.409,3.357,4.629,4.629,0,0,0,3.4,1.409h3.564a4.63,4.63,0,0,0,3.4-1.409,4.583,4.583,0,0,0,1.409-3.357Z" transform="translate(-1469.412 -512.602)" fill="#002153"/>
        </g>
        <path id="Caminho_5" data-name="Caminho 5" d="M1394.6,241.384h14.158l-36.958-107.6c-1.024-2.871-2.866-7.031-8.084-7.031-5.874,0-7.418,4-8.4,6.945l-36.491,107.686h14.021l13.612-41.113L1363.558,145l18.485,57.8-27.736-.027-4.01,12.282,34.79-.225Z" transform="translate(-1301.657 -126.753)" fill="#002153"/>
        <g id="Grupo_2" data-name="Grupo 2" transform="translate(0 11.922)">
          <path id="Caminho_6" data-name="Caminho 6" d="M1277.714,237.424l.4.135a19.6,19.6,0,0,0,7.389,1.518l.924.021,1.25-3.686,1.957-6.571-1.83-.054c-2.477-.078-6.153-.8-7.674-1.764a11.56,11.56,0,0,1-5.148-7.4,12.038,12.038,0,0,1,1.6-9.024,14.3,14.3,0,0,1,8.562-5.785,11.672,11.672,0,0,1,2.2-.11l4.651.2.239,0a5.471,5.471,0,0,0,2.445-.6,5.252,5.252,0,0,0,2.216-7.117l-2.183-4.131a12.157,12.157,0,0,1,5.071-16.387,12.285,12.285,0,0,1,8.156-1.058l3.4-10.03a22.99,22.99,0,0,0-5.987-.805,22.618,22.618,0,0,0-21.493,29.563,22.721,22.721,0,0,0-19.766,21.486,22.707,22.707,0,0,0,10.52,20.01,17.924,17.924,0,0,0,2.6,1.365C1277.385,237.288,1277.546,237.354,1277.714,237.424Z" transform="translate(-1264.073 -164.786)" fill="#0093db"/>
          <path id="Caminho_7" data-name="Caminho 7" d="M1555.661,215.833a22.711,22.711,0,0,0-19.769-21.484,22.583,22.583,0,0,0-21.489-29.563,22.971,22.971,0,0,0-6.143.844l3.444,10.016a12.281,12.281,0,0,1,8.265,1.033,12.158,12.158,0,0,1,5.07,16.387l-2.185,4.142a5.245,5.245,0,0,0,2.242,7.117,5.449,5.449,0,0,0,2.424.584l4.89-.2a12.43,12.43,0,0,1,2.114.1,14.318,14.318,0,0,1,8.64,5.8,12.035,12.035,0,0,1,1.607,9.024,11.58,11.58,0,0,1-5.15,7.4c-1.522.956-7.035,1.684-9.532,1.762l-.136,0,3.54,10.305.754-.018a19.319,19.319,0,0,0,7.287-1.481l.574-.2c.148-.065.29-.124.411-.18a17.862,17.862,0,0,0,2.623-1.372A22.718,22.718,0,0,0,1555.661,215.833Z" transform="translate(-1431.716 -164.786)" fill="#0093db"/>
        </g>
        <g id="Grupo_3" data-name="Grupo 3" transform="translate(115.259 87.041)" opacity="0.6">
          <path id="Caminho_8" data-name="Caminho 8" d="M1634.233,415.924h-.682v2.75h-1.094v-7.58h1.96a2.114,2.114,0,0,1,2.274,2.372,2.228,2.228,0,0,1-1.365,2.306l1.646,2.9h-1.213Zm-.682-1.04h.845c.769,0,1.169-.5,1.169-1.4s-.4-1.354-1.158-1.354h-.856Z" transform="translate(-1632.241 -409.004)" fill="#002153"/>
          <path id="Caminho_9" data-name="Caminho 9" d="M1653.693,417.645v1.029h-3.823v-7.58h3.714v1.029h-2.621v2.2h2.415v1.007h-2.415v2.317Z" transform="translate(-1644.196 -409.004)" fill="#002153"/>
          <path id="Caminho_10" data-name="Caminho 10" d="M1669.4,417.635v1.039H1665.8v-7.58h1.094v6.541Z" transform="translate(-1655.13 -409.004)" fill="#002153"/>
          <path id="Caminho_11" data-name="Caminho 11" d="M1679.272,411.693v-2.772a2.327,2.327,0,1,1,4.635,0v2.772a2.328,2.328,0,1,1-4.635,0Zm3.508,0v-2.772c0-.953-.412-1.473-1.191-1.473s-1.191.52-1.191,1.473v2.772c0,.953.4,1.473,1.191,1.473S1682.78,412.646,1682.78,411.693Zm-.823-7.266h1l-1.18,1.354h-.823Z" transform="translate(-1664.381 -404.427)" fill="#002153"/>
          <path id="Caminho_12" data-name="Caminho 12" d="M1697.514,416.161v-3.086a2.218,2.218,0,1,1,4.429-.054h-1.083c-.044-.877-.433-1.256-1.126-1.256s-1.1.4-1.1,1.321v3.076c0,.92.433,1.321,1.137,1.321.726,0,1.159-.4,1.159-1.267v-.953h-1.2v-.975H1702v1.928a2.244,2.244,0,1,1-4.483-.054Z" transform="translate(-1676.905 -408.743)" fill="#002153"/>
          <path id="Caminho_13" data-name="Caminho 13" d="M1716.5,411.094v7.58h-1.094v-7.58Z" transform="translate(-1689.19 -409.004)" fill="#002153"/>
          <path id="Caminho_14" data-name="Caminho 14" d="M1723.01,415.963v-2.772a2.327,2.327,0,1,1,4.635,0v2.772a2.327,2.327,0,1,1-4.635,0Zm3.508,0v-2.772c0-.953-.411-1.473-1.191-1.473s-1.191.52-1.191,1.473v2.772c0,.953.4,1.473,1.191,1.473S1726.518,416.916,1726.518,415.963Z" transform="translate(-1694.409 -408.697)" fill="#002153"/>
          <path id="Caminho_15" data-name="Caminho 15" d="M1631.767,453.637v-3.119a2.092,2.092,0,0,1,2.188-2.372,2.13,2.13,0,0,1,2.252,2.328h-1.083c-.065-.888-.455-1.288-1.181-1.288-.639,0-1.061.422-1.061,1.332v3.119c0,.9.423,1.321,1.083,1.321.736,0,1.126-.412,1.2-1.278h1.083a2.146,2.146,0,0,1-2.285,2.317A2.1,2.1,0,0,1,1631.767,453.637Z" transform="translate(-1631.767 -434.442)" fill="#002153"/>
          <path id="Caminho_16" data-name="Caminho 16" d="M1648.765,453.464v-2.772a2.327,2.327,0,1,1,4.635,0v2.772a2.327,2.327,0,1,1-4.635,0Zm3.508,0v-2.772c0-.953-.411-1.473-1.191-1.473s-1.191.52-1.191,1.473v2.772c0,.953.4,1.473,1.191,1.473S1652.273,454.417,1652.273,453.464Z" transform="translate(-1643.437 -434.442)" fill="#002153"/>
          <path id="Caminho_17" data-name="Caminho 17" d="M1673.632,448.6v7.58h-1.072V453.22c.021-.866.043-1.657.086-2.448l-.043-.022c-.217.606-.476,1.3-.736,1.992l-.661,1.722h-1.083l-.661-1.722c-.26-.693-.52-1.386-.736-1.992l-.043.022c.032.79.065,1.581.086,2.448v2.956H1667.7V448.6h1.115l1.278,3.075c.173.433.433,1.159.552,1.505h.043c.119-.347.379-1.072.552-1.505l1.278-3.075Z" transform="translate(-1656.434 -434.751)" fill="#002153"/>
          <path id="Caminho_18" data-name="Caminho 18" d="M1703.248,454.01a2.024,2.024,0,0,1-2.187,2.166H1698.9V448.6h2.057a1.9,1.9,0,0,1,2.014,2.058,1.866,1.866,0,0,1-.769,1.624A1.78,1.78,0,0,1,1703.248,454.01Zm-3.259-4.386V451.8h.866c.661,0,1-.379,1-1.115,0-.715-.325-1.061-1.029-1.061Zm2.144,4.386a1.11,1.11,0,0,0-1.256-1.18h-.888v2.317h.931C1701.721,455.147,1702.133,454.779,1702.133,454.01Z" transform="translate(-1677.853 -434.751)" fill="#002153"/>
          <path id="Caminho_19" data-name="Caminho 19" d="M1715.685,453.464v-2.772a2.328,2.328,0,1,1,4.635,0v2.772a2.328,2.328,0,1,1-4.635,0Zm3.509,0v-2.772c0-.953-.412-1.473-1.191-1.473s-1.191.52-1.191,1.473v2.772c0,.953.4,1.473,1.191,1.473S1719.194,454.417,1719.194,453.464Z" transform="translate(-1689.38 -434.442)" fill="#002153"/>
          <path id="Caminho_20" data-name="Caminho 20" d="M1736.674,449.635h-1.581v6.541h-1.115v-6.541h-1.57V448.6h4.267Z" transform="translate(-1700.86 -434.751)" fill="#002153"/>
          <path id="Caminho_21" data-name="Caminho 21" d="M1749.035,450.309h-2l-.347,1.527h-1.148l1.906-7.58h1.18l1.906,7.58h-1.137Zm-1.581-7.039h-.7c.033-.639.379-1,.855-1,.455,0,.606.325.844.325.152,0,.249-.108.282-.292h.682c-.054.617-.379,1-.855,1-.444,0-.6-.325-.845-.325C1747.583,442.978,1747.486,443.076,1747.454,443.27Zm1.354,6.021-.477-2.036c-.108-.5-.227-1.223-.281-1.624h-.033c-.054.4-.162,1.126-.281,1.624l-.466,2.036Z" transform="translate(-1709.874 -430.41)" fill="#002153"/>
          <path id="Caminho_22" data-name="Caminho 22" d="M1763.019,453.464v-2.772a2.327,2.327,0,1,1,4.635,0v2.772a2.327,2.327,0,1,1-4.635,0Zm3.508,0v-2.772c0-.953-.411-1.473-1.191-1.473s-1.191.52-1.191,1.473v2.772c0,.953.4,1.473,1.191,1.473S1766.527,454.417,1766.527,453.464Z" transform="translate(-1721.876 -434.442)" fill="#002153"/>
          <path id="Caminho_23" data-name="Caminho 23" d="M1789.379,448.6h1.884a2.148,2.148,0,0,1,2.339,2.361v2.837a2.157,2.157,0,0,1-2.328,2.382h-1.9Zm1.9,6.541c.78,0,1.224-.466,1.224-1.365v-2.794c0-.888-.433-1.343-1.224-1.343h-.8v5.5Z" transform="translate(-1739.974 -434.751)" fill="#002153"/>
          <path id="Caminho_24" data-name="Caminho 24" d="M1810.822,455.147v1.029H1807V448.6h3.715v1.029h-2.621v2.2h2.415v1.007h-2.415v2.317Z" transform="translate(-1752.07 -434.751)" fill="#002153"/>
          <path id="Caminho_25" data-name="Caminho 25" d="M1636.28,492.649v1.029h-3.823V486.1h3.714v1.028h-2.621v2.2h2.415v1.007h-2.415v2.317Z" transform="translate(-1632.241 -460.497)" fill="#002153"/>
          <path id="Caminho_26" data-name="Caminho 26" d="M1654.318,486.1v7.58h-1.072v-2.956c.021-.866.043-1.657.087-2.448l-.044-.022c-.216.606-.476,1.3-.736,1.992l-.661,1.722h-1.083l-.66-1.722c-.26-.693-.52-1.386-.736-1.992l-.044.022c.033.791.065,1.581.087,2.448v2.956h-1.072V486.1h1.115l1.278,3.075c.173.433.433,1.159.552,1.505h.043c.119-.347.379-1.072.552-1.505l1.278-3.075Z" transform="translate(-1643.175 -460.497)" fill="#002153"/>
          <path id="Caminho_27" data-name="Caminho 27" d="M1675.976,492.649v1.029h-3.823V486.1h3.715v1.028h-2.621v2.2h2.415v1.007h-2.415v2.317Z" transform="translate(-1659.493 -460.497)" fill="#002153"/>
          <path id="Caminho_28" data-name="Caminho 28" d="M1689.856,490.928h-.682v2.75h-1.094V486.1h1.96a2.114,2.114,0,0,1,2.274,2.371,2.229,2.229,0,0,1-1.365,2.307l1.646,2.9h-1.213Zm-.682-1.039h.845c.769,0,1.17-.5,1.17-1.4s-.4-1.353-1.159-1.353h-.856Z" transform="translate(-1670.428 -460.497)" fill="#002153"/>
          <path id="Caminho_29" data-name="Caminho 29" d="M1704.8,491.164v-3.086a2.218,2.218,0,1,1,4.429-.054h-1.083c-.044-.877-.433-1.256-1.126-1.256s-1.1.4-1.1,1.321v3.075c0,.92.433,1.321,1.137,1.321.726,0,1.159-.4,1.159-1.267v-.953h-1.2v-.975h2.274v1.928a2.244,2.244,0,1,1-4.483-.054Z" transform="translate(-1681.909 -460.236)" fill="#002153"/>
          <path id="Caminho_30" data-name="Caminho 30" d="M1726.926,487.315H1724.1v2.632h3.162v.79h-4.115v-7.3h3.953v.791h-3v2.306h2.826Zm-1.451-5.5,1.137,1.234h-.8l-.682-.747h-.022l-.693.747h-.769l1.1-1.234Z" transform="translate(-1694.503 -457.556)" fill="#002153"/>
          <path id="Caminho_31" data-name="Caminho 31" d="M1744.467,486.1v7.58h-1.094l-1.689-3.714c-.227-.563-.542-1.354-.726-1.841l-.032.021c.076.758.13,1.9.13,2.61v2.924h-1.083V486.1h1.094l1.743,3.866c.227.509.509,1.213.693,1.668l.032-.022c-.086-.747-.152-1.884-.152-2.556V486.1Z" transform="translate(-1706.054 -460.497)" fill="#002153"/>
          <path id="Caminho_32" data-name="Caminho 32" d="M1758.457,491.138V488.02a2.092,2.092,0,0,1,2.187-2.372,2.13,2.13,0,0,1,2.252,2.328h-1.083c-.065-.888-.455-1.288-1.181-1.288-.639,0-1.061.422-1.061,1.332v3.119c0,.9.422,1.321,1.083,1.321.736,0,1.126-.411,1.2-1.278h1.083a2.146,2.146,0,0,1-2.285,2.317A2.1,2.1,0,0,1,1758.457,491.138Z" transform="translate(-1718.744 -460.188)" fill="#002153"/>
          <path id="Caminho_33" data-name="Caminho 33" d="M1777.24,486.1v7.58h-1.094V486.1Z" transform="translate(-1730.888 -460.497)" fill="#002153"/>
          <path id="Caminho_34" data-name="Caminho 34" d="M1785.759,492.151h-2l-.346,1.527h-1.148l1.906-7.58h1.18l1.906,7.58h-1.137Zm-.228-1.018-.477-2.036c-.108-.5-.227-1.223-.281-1.624h-.033c-.054.4-.162,1.126-.282,1.624l-.466,2.036Z" transform="translate(-1735.087 -460.497)" fill="#002153"/>
        </g>
      </g>
      <g id="Grupo_5" data-name="Grupo 5" transform="translate(1264.395 286.743)">
        <path id="Caminho_35" data-name="Caminho 35" d="M1270.359,644.751h-2.912l-.831,3.031H1265.1l3.045-10.635h1.515l3.044,10.635h-1.516Zm-.422-1.529-1.041-3.8-1.028,3.8Z" transform="translate(-1265.101 -637.147)" fill="#0093db"/>
        <path id="Caminho_36" data-name="Caminho 36" d="M1300.731,638.043a3.038,3.038,0,0,1-2.149,5.179h-2.662v4.56h-1.516V637.147h4.178A2.932,2.932,0,0,1,1300.731,638.043Zm-1.068,3.216a1.473,1.473,0,0,0,.448-1.081,1.458,1.458,0,0,0-.448-1.068,1.474,1.474,0,0,0-1.081-.448h-2.662v3.044h2.662A1.473,1.473,0,0,0,1299.664,641.259Z" transform="translate(-1285.219 -637.147)" fill="#0093db"/>
        <path id="Caminho_37" data-name="Caminho 37" d="M1325.955,638.663a1.474,1.474,0,0,0-1.081.448,1.458,1.458,0,0,0-.448,1.068,1.53,1.53,0,0,0,1.529,1.529H1329v1.516h-3.044a1.53,1.53,0,0,0-1.529,1.529,1.456,1.456,0,0,0,.448,1.067,1.471,1.471,0,0,0,1.081.448h3.413v1.516h-3.413a2.939,2.939,0,0,1-2.148-.89,3.011,3.011,0,0,1,.145-4.421,3.042,3.042,0,0,1,2-5.324h3.413v1.516Z" transform="translate(-1304.789 -637.147)" fill="#0093db"/>
        <path id="Caminho_38" data-name="Caminho 38" d="M1354.3,647.782l-1.634-4.56h-2.175v4.56h-1.515V637.147h3.8a3.06,3.06,0,0,1,3.044,3.031,3.057,3.057,0,0,1-1.727,2.742l1.9,4.863Zm-3.809-6.076h2.281a1.522,1.522,0,1,0,0-3.044h-2.281Z" transform="translate(-1322.685 -637.147)" fill="#0093db"/>
        <path id="Caminho_39" data-name="Caminho 39" d="M1383.574,637.147v1.516h-3.044v9.12h-1.516v-9.12h-3.045v-1.516Z" transform="translate(-1341.216 -637.147)" fill="#0093db"/>
        <path id="Caminho_40" data-name="Caminho 40" d="M1411.18,638.043a2.917,2.917,0,0,1,.9,2.135v4.573a2.91,2.91,0,0,1-.9,2.142,2.941,2.941,0,0,1-2.148.89H1407.9a2.94,2.94,0,0,1-2.148-.89,2.908,2.908,0,0,1-.9-2.142v-4.573a3.06,3.06,0,0,1,3.045-3.031h1.133A2.932,2.932,0,0,1,1411.18,638.043Zm-.619,2.135a1.459,1.459,0,0,0-.448-1.068,1.474,1.474,0,0,0-1.081-.448H1407.9a1.474,1.474,0,0,0-1.081.448,1.458,1.458,0,0,0-.448,1.068v4.573a1.457,1.457,0,0,0,.448,1.067,1.472,1.472,0,0,0,1.081.448h1.133a1.531,1.531,0,0,0,1.529-1.516Z" transform="translate(-1361.047 -637.147)" fill="#0093db"/>
        <path id="Caminho_41" data-name="Caminho 41" d="M1436.4,647.782a2.94,2.94,0,0,1-2.148-.89,2.908,2.908,0,0,1-.9-2.142v-7.6h1.516v7.6a1.456,1.456,0,0,0,.448,1.067,1.472,1.472,0,0,0,1.081.448h1.134a1.471,1.471,0,0,0,1.08-.448,1.456,1.456,0,0,0,.448-1.067v-7.6h1.515v7.6a2.909,2.909,0,0,1-.9,2.142,2.941,2.941,0,0,1-2.148.89Z" transform="translate(-1380.616 -637.147)" fill="#0093db"/>
        <path id="Caminho_42" data-name="Caminho 42" d="M1463.38,667.757a1.473,1.473,0,0,1-.448,1.081,1.458,1.458,0,0,1-1.068.448v-.764a.765.765,0,0,0,.765-.765h-.765v-1.516h1.516Z" transform="translate(-1400.186 -657.121)" fill="#0093db"/>
        <path id="Caminho_43" data-name="Caminho 43" d="M1484.2,647.782a2.94,2.94,0,0,1-2.148-.89,2.907,2.907,0,0,1-.9-2.142v-4.573a3.061,3.061,0,0,1,3.045-3.031h1.133a3.059,3.059,0,0,1,3.044,3.031h-1.516a1.516,1.516,0,0,0-.454-1.068,1.452,1.452,0,0,0-1.074-.448H1484.2a1.474,1.474,0,0,0-1.081.448,1.458,1.458,0,0,0-.448,1.068v4.573a1.456,1.456,0,0,0,.448,1.067,1.472,1.472,0,0,0,1.081.448h1.133a1.45,1.45,0,0,0,1.074-.448,1.514,1.514,0,0,0,.454-1.067h1.516a3.059,3.059,0,0,1-3.044,3.031Z" transform="translate(-1413.429 -637.147)" fill="#0093db"/>
        <path id="Caminho_44" data-name="Caminho 44" d="M1515.365,643.223h-4.191v4.56h-1.516V637.147h1.516v4.56h4.191v-4.56h1.516v10.635h-1.516Z" transform="translate(-1432.998 -637.147)" fill="#0093db"/>
        <path id="Caminho_45" data-name="Caminho 45" d="M1543,644.751h-2.912l-.831,3.031h-1.516l3.045-10.635h1.516l3.045,10.635h-1.516Zm-.422-1.529-1.041-3.8-1.028,3.8Z" transform="translate(-1452.28 -637.147)" fill="#0093db"/>
        <path id="Caminho_46" data-name="Caminho 46" d="M1577.7,637.147v10.635h-1.529v-7.09l-3.031,7.09h-1.529l-3.045-7.09v7.09h-1.516V637.147h1.595l3.73,8.685,3.717-8.685Z" transform="translate(-1472.398 -637.147)" fill="#0093db"/>
        <path id="Caminho_47" data-name="Caminho 47" d="M1612.809,638.043a2.917,2.917,0,0,1,.9,2.135v4.573a2.909,2.909,0,0,1-.9,2.142,2.941,2.941,0,0,1-2.148.89h-1.133a2.939,2.939,0,0,1-2.148-.89,2.908,2.908,0,0,1-.9-2.142v-4.573a3.061,3.061,0,0,1,3.044-3.031h1.133A2.931,2.931,0,0,1,1612.809,638.043Zm-.619,2.135a1.458,1.458,0,0,0-.448-1.068,1.473,1.473,0,0,0-1.081-.448h-1.133a1.474,1.474,0,0,0-1.081.448,1.458,1.458,0,0,0-.448,1.068v4.573a1.456,1.456,0,0,0,.448,1.067,1.471,1.471,0,0,0,1.081.448h1.133a1.471,1.471,0,0,0,1.081-.448,1.456,1.456,0,0,0,.448-1.067Z" transform="translate(-1499.472 -637.147)" fill="#0093db"/>
        <path id="Caminho_48" data-name="Caminho 48" d="M1638.034,647.782a2.94,2.94,0,0,1-2.148-.89,2.907,2.907,0,0,1-.9-2.142v-7.6h1.516v7.6a1.456,1.456,0,0,0,.448,1.067,1.472,1.472,0,0,0,1.081.448h1.133a1.472,1.472,0,0,0,1.081-.448,1.456,1.456,0,0,0,.448-1.067v-7.6h1.516v7.6a2.909,2.909,0,0,1-.9,2.142,2.941,2.941,0,0,1-2.148.89Z" transform="translate(-1519.042 -637.147)" fill="#0093db"/>
      </g>
    </g>
  </g>
</svg>
