<svg xmlns="http://www.w3.org/2000/svg" width="131.904" height="130.019" viewBox="0 0 131.904 130.019">
  <g id="Grupo_133" data-name="Grupo 133" transform="translate(-216 -1258.781)">
    <circle id="Elipse_10" data-name="Elipse 10" cx="24.5" cy="24.5" r="24.5" transform="translate(298.904 1339.8)" fill="aqua"/>
    <text id="_1" data-name="1" transform="translate(322.904 1378.8)" fill="#ff4a99" font-size="40" style="font-family='Roboto'; font-weight=700"><tspan x="-11.475" y="0">1</tspan></text>
    <g id="Grupo_132" data-name="Grupo 132" transform="translate(216 1258.781)">
      <path id="Caminho_140" data-name="Caminho 140" d="M7.559,8.016H18.334a10.3,10.3,0,0,1,7.559,3.3V5.171A5.171,5.171,0,0,0,20.722,0H5.171A5.171,5.171,0,0,0,0,5.171v6.146A10.3,10.3,0,0,1,7.559,8.016Z" transform="translate(17.534)" fill="aqua"/>
      <path id="Caminho_141" data-name="Caminho 141" d="M60.47,57.588a4.714,4.714,0,0,0-3.348,1.356,5.428,5.428,0,0,0-1.531-2.6,5.874,5.874,0,0,0-4.272-1.666c-2.837.074-4.949.661-6.294,1.748V56.35c0-1.247-1.478-4.671-6.235-4.671a8.581,8.581,0,0,0-2.271.294A5.159,5.159,0,0,0,38.66,47.79V42.23a10.36,10.36,0,0,1-4.779,2.915V42.535a10.36,10.36,0,0,0,7.559-9.95V10.34A10.367,10.367,0,0,0,31.1,0H20.325A10.367,10.367,0,0,0,9.985,10.34V32.585a10.367,10.367,0,0,0,10.34,10.34h.239v2.607h-.239a10.3,10.3,0,0,1-7.559-3.3v5.56a5.171,5.171,0,0,0,5.171,5.171h2.628V84.5a1.77,1.77,0,0,1-.321,1.02l-8.306-9.63c-.1-.117-2.465-2.873-5.552-3.053A5.627,5.627,0,0,0,2.119,74.5,6.072,6.072,0,0,0,0,78.852a7.756,7.756,0,0,0,2.054,5.029l21.1,24.874c.017.02.034.039.052.057a33.068,33.068,0,0,0,22.523,10.082c.134,0,.222,0,.259,0C64.5,118.438,68.13,99.929,68.165,99.742a1.022,1.022,0,0,0,.017-.185V62.476C68.182,61.329,67.626,57.588,60.47,57.588Zm-25.957-4.73a7.245,7.245,0,0,0-.632.441v-.358A5.253,5.253,0,0,0,34.513,52.858ZM19.188,35.669a3.337,3.337,0,0,1-3.337-3.337v-.277a3.337,3.337,0,0,1,3.337-3.337h13.05a3.337,3.337,0,0,1,3.337,3.337v.277A3.335,3.335,0,0,1,33.77,35.3c-.635-3.593-4.108-4.884-6.035-5.052a.857.857,0,0,0-.089,0A6.879,6.879,0,0,0,22.455,32.2a6.975,6.975,0,0,0-1.727,3.47ZM66.14,99.458c-.3,1.467-3.814,16.993-20.205,17.39h-.009A31.238,31.238,0,0,1,24.685,107.4L3.6,82.539c-.015-.017-.03-.034-.045-.05A5.8,5.8,0,0,1,2.043,78.9a4.112,4.112,0,0,1,1.471-2.907,3.614,3.614,0,0,1,2.745-1.117c2.207.124,4.1,2.314,4.126,2.342l8.993,10.427a1.021,1.021,0,0,0,1.262.23A3.942,3.942,0,0,0,22.607,84.5V37.28a6.168,6.168,0,0,1,.218-1.611A4.726,4.726,0,0,1,23.94,33.6,4.913,4.913,0,0,1,27.6,32.28c.426.046,3.651.5,4.165,3.389a4.5,4.5,0,0,1,.077.8V71.73a1.021,1.021,0,0,0,2.041.02l.32-15.875a5.45,5.45,0,0,1,4.59-2.154c3.368,0,4.183,2.221,4.193,2.629V72.511A1.021,1.021,0,0,0,44,73.532h.456a1.021,1.021,0,0,0,1.021-1.021V59.674a1.019,1.019,0,0,0-.01-.142,1.77,1.77,0,0,1,.464-1.155c.6-.707,2.028-1.568,5.438-1.657a3.79,3.79,0,0,1,2.793,1.087,3.016,3.016,0,0,1,.981,1.737v13.62a1.021,1.021,0,0,0,2.042.023l.257-11.109c.2-.52,1.079-2.448,3.024-2.448,3.55,0,5.67,1.064,5.67,2.845Z" transform="translate(4.768 10.926)" fill="aqua"/>
      <path id="Caminho_142" data-name="Caminho 142" d="M1.277,8.244a1.27,1.27,0,0,0,.8-.284L9.117,2.269A1.276,1.276,0,0,0,7.512.284L.474,5.976a1.276,1.276,0,0,0,.8,2.269Z" transform="translate(48.234 9.65)" fill="aqua"/>
      <path id="Caminho_143" data-name="Caminho 143" d="M0,1.276A1.276,1.276,0,0,0,1.276,2.552h9.052a1.276,1.276,0,1,0,0-2.552H1.276A1.276,1.276,0,0,0,0,1.276Z" transform="translate(49.229 20.582)" fill="aqua"/>
      <path id="Caminho_144" data-name="Caminho 144" d="M.374.374a1.276,1.276,0,0,0,0,1.8l6.4,6.4a1.276,1.276,0,0,0,1.8-1.8l-6.4-6.4A1.276,1.276,0,0,0,.374.374Z" transform="translate(48.553 24.712)" fill="aqua"/>
      <path id="Caminho_145" data-name="Caminho 145" d="M9.117,2.269A1.276,1.276,0,1,0,7.512.284L.474,5.976a1.276,1.276,0,1,0,1.6,1.984Z" transform="translate(3.008 25.421)" fill="aqua"/>
      <path id="Caminho_146" data-name="Caminho 146" d="M11.6,1.276A1.276,1.276,0,0,0,10.328,0H1.276a1.276,1.276,0,1,0,0,2.552h9.052A1.276,1.276,0,0,0,11.6,1.276Z" transform="translate(0 20.181)" fill="aqua"/>
      <path id="Caminho_147" data-name="Caminho 147" d="M6.774,8.579a1.276,1.276,0,0,0,1.8-1.8l-6.4-6.4a1.276,1.276,0,0,0-1.805,1.8Z" transform="translate(3.327 9.65)" fill="aqua"/>
    </g>
  </g>
</svg>
