<svg xmlns="http://www.w3.org/2000/svg" width="164.931" height="134.264" viewBox="0 0 164.931 134.264">
  <g id="Grupo_127" data-name="Grupo 127" transform="translate(-671.069 -1398.736)">
    <g id="Grupo_126" data-name="Grupo 126">
      <g id="Grupo_73" data-name="Grupo 73" transform="translate(1329.347 3765.04)">
        <path id="Caminho_78" data-name="Caminho 78" d="M-542.115-2309.657c.185-.625.367-1.264.564-1.9.744-2.385,3.189-3.176,4.962-1.448q4.237,4.13,8.223,8.516c1.571,1.721,1.012,3.876-1.183,4.789-3.45,1.434-6.927,2.814-10.439,4.088-2.93,1.062-5.041-.72-4.247-3.735.535-2.032-.434-2.333-1.917-2.642-18.619-3.88-37.742,9.123-40.976,27.875a34.7,34.7,0,0,0,27.334,40.2,30.24,30.24,0,0,0,6.075.637q31.962.055,63.924,0a15.728,15.728,0,0,0,15.5-12.59,15.928,15.928,0,0,0-9.464-17.821,19.185,19.185,0,0,0-2.916-.907c-3.9-.942-4.962-2.71-3.854-6.494,1.844-6.294-.437-13.077-6.037-16.369-2.3-1.352-5.169-1.88-7.854-2.383-1.974-.37-4.076,0-6.112-.121a4.025,4.025,0,0,1-3.817-3.828,3.773,3.773,0,0,1,3.294-4.222c6.269-.337,12.56-.531,18.185,3.058,7.626,4.867,11.553,11.728,11.028,20.865a2.789,2.789,0,0,0,1.97,3.183A23.987,23.987,0,0,1-465.9-2246.17a23.875,23.875,0,0,1-20.242,20.819,33.639,33.639,0,0,1-4.87.372q-30.941.046-61.882.038a42.918,42.918,0,0,1-42.286-50.8,42.946,42.946,0,0,1,36.531-34.689,42.845,42.845,0,0,1,15.595.77A4.835,4.835,0,0,0-542.115-2309.657Z" transform="translate(-36.875 -30.971)" fill="none" stroke="aqua" stroke-width="2"/>
        <path id="Caminho_79" data-name="Caminho 79" d="M-523.582-2204.96c-3.811,0-7.623-.052-11.433.026-1.526.031-2.025-.517-1.982-2.022.093-3.264.024-6.533.045-9.8.036-5.5,2.566-9.283,7.7-11.355,2.962-1.2,5.878-2.508,8.8-3.8,4.644-2.053,3.8-9.027.732-11.211a6.156,6.156,0,0,0-9.669,3.607c-.317,1.362-.853,1.837-2.169,1.749a18.916,18.916,0,0,0-3.263.011c-2,.213-2.246-.759-1.986-2.437,1.063-6.859,7.124-11.657,14.446-11.353a13.486,13.486,0,0,1,12.438,12.423,22.7,22.7,0,0,1-.354,5.877,10,10,0,0,1-6.115,7.409c-2.812,1.208-5.657,2.341-8.461,3.565-4.27,1.863-5.667,4.5-4.642,8.982.1.452,1.151.969,1.767.978,5.171.079,10.346.128,15.515,0,1.9-.045,2.439.545,2.4,2.415-.093,4.925-.011,4.927-4.992,4.932q-2.451,0-4.9,0Z" transform="translate(-71.723 -67.859)" fill="none" stroke="aqua" stroke-width="2"/>
        <path id="Caminho_80" data-name="Caminho 80" d="M-451.99-2222.349c.5.092.563.108.63.115,1.383.15,3.816,0,3.961.5a17.047,17.047,0,0,1,.235,5.83c-.027.372-1.182.916-1.835.943-3.133.131-2.985-.468-2.991,3.19,0,1.7-.038,3.4,0,5.1.027,1.142-.481,1.5-1.587,1.573-5.7.368-5.7.394-5.706-5.188,0-1.417,0-2.835,0-4.638h-5.372c-2.586,0-5.172-.026-7.757.018-1.193.02-1.662-.408-1.708-1.658a19.618,19.618,0,0,1,1.735-9.469c3.731-7.861,7.194-15.849,10.677-23.826a2.579,2.579,0,0,1,2.9-1.892,25.3,25.3,0,0,0,4.486,0c1.97-.2,2.386.671,2.368,2.468-.078,8.164-.035,16.33-.035,24.494Zm-7.413.07v-14.543l-.336-.087-6.169,14.63Z" transform="translate(-108.899 -67.73)" fill="none" stroke="aqua" stroke-width="2"/>
        <path id="Caminho_81" data-name="Caminho 81" d="M-391.758-2213.507c7.19-2,13.027.139,14.591,6.106,1.128,4.3.72,9.01.93,13.54.013.289-.552.617-.874.9-.082.071-.264.023-.4.038-4.68.511-4.684.507-4.694-4.124,0-2.042.039-4.086-.027-6.126a4.845,4.845,0,0,0-4.834-5c-2.677.031-4.647,2.149-4.687,5.122-.038,2.791-.055,5.583.011,8.373.031,1.321-.436,1.8-1.775,1.775-5.239-.1-4.273.54-4.3-4.1-.051-10.347.038-20.7-.063-31.042-.021-2.05.516-2.942,2.613-2.615a5.22,5.22,0,0,0,1.427,0c1.612-.2,2.131.49,2.105,2.088C-391.809-2223.612-391.758-2218.648-391.758-2213.507Z" transform="translate(-154 -80.176)" fill="none" stroke="aqua" stroke-width="2"/>
        <g id="Grupo_73-2" data-name="Grupo 73" transform="translate(-658.278 -2366.304)">
          <path id="Caminho_82" data-name="Caminho 82" d="M-647.93-2213.133l-1.082,4.331,2.265,1.441-.656,2.627-10.874-7.459.572-2.289,13.111-1.492-.657,2.626Zm-2.917,3.164.749-3-4.864.386Z" transform="translate(658.278 2277.401)" fill="aqua"/>
          <path id="Caminho_83" data-name="Caminho 83" d="M-639.514-2241.978a1.689,1.689,0,0,0-.572-.136,1.124,1.124,0,0,0-.581.148,3.314,3.314,0,0,0-.684.516,11.813,11.813,0,0,0-.883.952,15.058,15.058,0,0,1-1.178,1.243,5.915,5.915,0,0,1-1.245.907,3.58,3.58,0,0,1-1.326.413,2.915,2.915,0,0,1-1.426-.239,3,3,0,0,1-1.176-.852,3.182,3.182,0,0,1-.645-1.289,4.628,4.628,0,0,1-.093-1.6,6.373,6.373,0,0,1,.474-1.794,5.807,5.807,0,0,1,.979-1.615,4.3,4.3,0,0,1,1.284-1.02,3.512,3.512,0,0,1,1.469-.382,3.619,3.619,0,0,1,1.538.29l-.978,2.351a2.071,2.071,0,0,0-.713-.163,1.458,1.458,0,0,0-.671.131,1.754,1.754,0,0,0-.585.446,2.77,2.77,0,0,0-.467.781,3.061,3.061,0,0,0-.232.845,1.772,1.772,0,0,0,.048.682,1.281,1.281,0,0,0,.283.513,1.29,1.29,0,0,0,.47.329,1.2,1.2,0,0,0,1.184-.183,7.055,7.055,0,0,0,1.411-1.394,11.954,11.954,0,0,1,1.326-1.375,5.264,5.264,0,0,1,1.292-.851,3.3,3.3,0,0,1,1.3-.3,3.387,3.387,0,0,1,1.363.282,3.209,3.209,0,0,1,1.219.851,3,3,0,0,1,.644,1.247,4.278,4.278,0,0,1,.077,1.563,6.814,6.814,0,0,1-.493,1.794,7.189,7.189,0,0,1-.567,1.088,5.9,5.9,0,0,1-.75.952,5.1,5.1,0,0,1-.905.74,3.829,3.829,0,0,1-1.039.465,3.539,3.539,0,0,1-1.156.116,3.83,3.83,0,0,1-1.248-.3l.981-2.359a2.269,2.269,0,0,0,.946.2,1.621,1.621,0,0,0,.775-.216,2.056,2.056,0,0,0,.62-.574,4.161,4.161,0,0,0,.487-.882,3.1,3.1,0,0,0,.231-.833,1.753,1.753,0,0,0-.039-.668,1.162,1.162,0,0,0-.276-.5A1.359,1.359,0,0,0-639.514-2241.978Z" transform="translate(653.001 2295.588)" fill="aqua"/>
          <path id="Caminho_84" data-name="Caminho 84" d="M-627.118-2266.176a1.71,1.71,0,0,0-.548-.218,1.127,1.127,0,0,0-.6.065,3.323,3.323,0,0,0-.75.412,11.868,11.868,0,0,0-1.01.817,15.034,15.034,0,0,1-1.344,1.062,5.867,5.867,0,0,1-1.362.72,3.553,3.553,0,0,1-1.371.22,2.9,2.9,0,0,1-1.377-.439,3.009,3.009,0,0,1-1.043-1.011,3.194,3.194,0,0,1-.455-1.369,4.626,4.626,0,0,1,.137-1.6,6.376,6.376,0,0,1,.725-1.707,5.8,5.8,0,0,1,1.2-1.459,4.284,4.284,0,0,1,1.416-.826,3.511,3.511,0,0,1,1.508-.168,3.6,3.6,0,0,1,1.481.507l-1.3,2.187a2.071,2.071,0,0,0-.682-.263,1.469,1.469,0,0,0-.682.033,1.768,1.768,0,0,0-.643.358,2.767,2.767,0,0,0-.573.706,3.035,3.035,0,0,0-.351.8,1.752,1.752,0,0,0-.05.681,1.293,1.293,0,0,0,.206.548,1.309,1.309,0,0,0,.418.392,1.2,1.2,0,0,0,1.2-.013,7.028,7.028,0,0,0,1.6-1.179,12.128,12.128,0,0,1,1.508-1.171,5.311,5.311,0,0,1,1.4-.658,3.294,3.294,0,0,1,1.331-.111,3.383,3.383,0,0,1,1.309.473,3.207,3.207,0,0,1,1.084,1.016,3,3,0,0,1,.46,1.326,4.258,4.258,0,0,1-.147,1.558,6.8,6.8,0,0,1-.744,1.706,7.1,7.1,0,0,1-.716,1,5.819,5.819,0,0,1-.878.836,5.03,5.03,0,0,1-1,.6,3.773,3.773,0,0,1-1.094.312,3.528,3.528,0,0,1-1.161-.049,3.844,3.844,0,0,1-1.192-.478l1.307-2.195a2.267,2.267,0,0,0,.908.333,1.625,1.625,0,0,0,.8-.1,2.068,2.068,0,0,0,.7-.48,4.174,4.174,0,0,0,.607-.8,3.088,3.088,0,0,0,.348-.791,1.761,1.761,0,0,0,.056-.668,1.144,1.144,0,0,0-.2-.53A1.36,1.36,0,0,0-627.118-2266.176Z" transform="translate(645.691 2310.353)" fill="aqua"/>
          <path id="Caminho_85" data-name="Caminho 85" d="M-613.09-2278.164l-1.525,2.04-9.9-7.4,1.525-2.039Z" transform="translate(638.309 2318.556)" fill="aqua"/>
          <path id="Caminho_86" data-name="Caminho 86" d="M-602.891-2297.937a1.724,1.724,0,0,0-.49-.326,1.139,1.139,0,0,0-.6-.061,3.335,3.335,0,0,0-.819.249,11.8,11.8,0,0,0-1.157.589,15.067,15.067,0,0,1-1.535.76,5.883,5.883,0,0,1-1.482.421,3.573,3.573,0,0,1-1.387-.069,2.911,2.911,0,0,1-1.257-.717,3,3,0,0,1-.81-1.205,3.182,3.182,0,0,1-.161-1.432,4.639,4.639,0,0,1,.465-1.535,6.406,6.406,0,0,1,1.064-1.52,5.805,5.805,0,0,1,1.476-1.177,4.272,4.272,0,0,1,1.556-.515,3.516,3.516,0,0,1,1.511.148,3.612,3.612,0,0,1,1.343.8l-1.728,1.87a2.035,2.035,0,0,0-.613-.4,1.465,1.465,0,0,0-.674-.109,1.778,1.778,0,0,0-.7.217,2.8,2.8,0,0,0-.708.572,3.087,3.087,0,0,0-.509.714,1.767,1.767,0,0,0-.191.656,1.292,1.292,0,0,0,.089.579,1.3,1.3,0,0,0,.328.47,1.2,1.2,0,0,0,1.175.237,7.061,7.061,0,0,0,1.805-.822,12.138,12.138,0,0,1,1.718-.833,5.263,5.263,0,0,1,1.506-.353,3.3,3.3,0,0,1,1.325.167,3.377,3.377,0,0,1,1.182.734,3.2,3.2,0,0,1,.85,1.22,3.007,3.007,0,0,1,.175,1.392,4.266,4.266,0,0,1-.467,1.492,6.779,6.779,0,0,1-1.082,1.514,7.186,7.186,0,0,1-.907.826,5.907,5.907,0,0,1-1.032.635,5.129,5.129,0,0,1-1.105.382,3.786,3.786,0,0,1-1.135.078,3.5,3.5,0,0,1-1.125-.289,3.863,3.863,0,0,1-1.067-.715l1.734-1.876a2.288,2.288,0,0,0,.819.514,1.63,1.63,0,0,0,.8.064,2.056,2.056,0,0,0,.78-.325,4.182,4.182,0,0,0,.761-.66,3.07,3.07,0,0,0,.5-.7,1.752,1.752,0,0,0,.195-.64,1.154,1.154,0,0,0-.088-.562A1.354,1.354,0,0,0-602.891-2297.937Z" transform="translate(631.268 2329.753)" fill="aqua"/>
          <path id="Caminho_87" data-name="Caminho 87" d="M-587.784-2326.044l-2.934,2.391,6.5,7.981-1.974,1.608-6.5-7.981-2.9,2.36-1.3-1.6,7.8-6.359Z" transform="translate(621.974 2343.44)" fill="aqua"/>
          <path id="Caminho_88" data-name="Caminho 88" d="M-562.2-2337.129l-4.176,2.543,1.721,2.827,4.9-2.984,1.064,1.747-7.075,4.309-6.427-10.554,7.06-4.3,1.073,1.761-4.886,2.976,1.532,2.515,4.176-2.542Zm-4.047-6.857.053.087-1.668,1.016-1.756-.372-.476,1.731-1.639,1-.071-.116.928-3.307,1.218-.742Z" transform="translate(607.365 2353.523)" fill="aqua"/>
          <path id="Caminho_89" data-name="Caminho 89" d="M-534.55-2343.392l-2.345.99-7.729-5.563,3.162,7.491-2.346.99-4.806-11.385,2.346-.99,7.742,5.576-3.169-7.507,2.338-.986Z" transform="translate(593.424 2359.487)" fill="aqua"/>
          <path id="Caminho_90" data-name="Caminho 90" d="M-504.807-2354.061a5.074,5.074,0,0,1,0,1.783,4.028,4.028,0,0,1-.632,1.549,4.5,4.5,0,0,1-1.268,1.222,6.08,6.08,0,0,1-1.906.8,5.3,5.3,0,0,1-2.171.111,4.355,4.355,0,0,1-1.841-.765,5.385,5.385,0,0,1-1.429-1.575,8.052,8.052,0,0,1-.932-2.309l-.195-.791a7.842,7.842,0,0,1-.237-2.486,5.449,5.449,0,0,1,.552-2.067,4.47,4.47,0,0,1,1.285-1.541,5.251,5.251,0,0,1,1.96-.912,5.9,5.9,0,0,1,2.061-.172,4.38,4.38,0,0,1,1.68.521,4.131,4.131,0,0,1,1.27,1.111,5.8,5.8,0,0,1,.846,1.588l-2.472.61a3.861,3.861,0,0,0-.419-.9,1.922,1.922,0,0,0-.587-.59,1.773,1.773,0,0,0-.8-.251,3.344,3.344,0,0,0-1.074.111,2.161,2.161,0,0,0-1.642,1.371,5.286,5.286,0,0,0,.083,2.974l.2.808a8.879,8.879,0,0,0,.538,1.6,3.538,3.538,0,0,0,.717,1.065,1.94,1.94,0,0,0,.931.518,2.557,2.557,0,0,0,1.183-.042,3.53,3.53,0,0,0,.977-.381,1.845,1.845,0,0,0,.61-.575,1.852,1.852,0,0,0,.275-.78,3.4,3.4,0,0,0-.034-.988Z" transform="translate(573.802 2363.312)" fill="aqua"/>
          <path id="Caminho_91" data-name="Caminho 91" d="M-483.113-2352.622l-2.524.337-1.636-12.249,2.524-.338Z" transform="translate(557.148 2365.457)" fill="aqua"/>
          <path id="Caminho_92" data-name="Caminho 92" d="M-466.416-2356.516l-4.464.09-.8,2.563-2.707.054,4.35-12.448,2.359-.047,4.874,12.262-2.707.054Zm-3.817-1.986,3.089-.062-1.646-4.593Z" transform="translate(549.525 2366.304)" fill="aqua"/>
        </g>
      </g>
    </g>
    <g id="Grupo_74" data-name="Grupo 74" transform="translate(121 -12)">
      <circle id="Elipse_5" data-name="Elipse 5" cx="22" cy="22" r="22" transform="translate(671 1501)" fill="aqua"/>
      <text id="_2" data-name="2" transform="translate(693 1536)" fill="#ff4a99" font-size="36" font-family="Roboto-Bold, Roboto" font-weight="700"><tspan x="-10.327" y="0">2</tspan></text>
    </g>
  </g>
</svg>
